<svg xmlns="http://www.w3.org/2000/svg" viewBox="0 0 8.98 10.04"><defs><style>.a{fill:#231f20;}</style></defs>Vocabulary<path class="a" d="M172.53,283a3.64,3.64,0,0,1,2.35,1,2.83,2.83,0,0,1,.85,2.1,2.57,2.57,0,0,1-.93,2.05,4.71,4.71,0,0,1-2.41,1l-.22-.43a4.37,4.37,0,0,0,2.33-.92,2.19,2.19,0,0,0,.77-1.67,2.55,2.55,0,0,0-.67-1.72,3.11,3.11,0,0,0-2.15-.89,8,8,0,0,1-1.66,3.69,4.63,4.63,0,0,0,.47.7l-.36.3a4.53,4.53,0,0,1-.44-.63,3.41,3.41,0,0,1-2.32,1.26,1.25,1.25,0,0,1-1-.47,1.9,1.9,0,0,1-.36-1.2,3.44,3.44,0,0,1,.69-2,4.92,4.92,0,0,1,2-1.58c0-.35,0-.71,0-1.07l0-.91c-.79.06-1.5.11-2.13.13l-.07-.44c.74,0,1.48,0,2.21-.11q0-.7.15-2.07l.43.05-.13,2a37.66,37.66,0,0,0,3.9-.65l.05.46a37.32,37.32,0,0,1-4,.62v1.85a6.1,6.1,0,0,1,2.09-.37h.1c0-.31.08-.63.1-.94l.47.09Zm-2.29,4.09a9.41,9.41,0,0,1-.75-3.09,4.43,4.43,0,0,0-1.68,1.38,3,3,0,0,0-.61,1.7,1.43,1.43,0,0,0,.28.91.88.88,0,0,0,.71.34,2,2,0,0,0,1.1-.44A5.25,5.25,0,0,0,170.24,287.05Zm1.75-3.64h-.09a5.47,5.47,0,0,0-2,.37,8.26,8.26,0,0,0,.65,2.88A7.8,7.8,0,0,0,172,283.41Z" transform="translate(-166.75 -279.01)"/></svg>