<svg xmlns="http://www.w3.org/2000/svg" viewBox="0 0 44.95 10.91"><defs><style>.a{fill:#231f20;}.b{fill:#ed1c24;}</style></defs><path class="a" d="M175.81,251.29a3.5,3.5,0,0,1-1.41-1.51,5.64,5.64,0,0,1,0-4.6,3.55,3.55,0,0,1,1.41-1.51,4.24,4.24,0,0,1,2.14-.53,4.52,4.52,0,0,1,1.49.24,3.75,3.75,0,0,1,1.24.68.68.68,0,0,1,.21.25.76.76,0,0,1,.06.32.73.73,0,0,1-.14.45.44.44,0,0,1-.35.18.91.91,0,0,1-.49-.17,3.67,3.67,0,0,0-1-.54,3.12,3.12,0,0,0-1-.15,2.31,2.31,0,0,0-1.89.78,4.45,4.45,0,0,0,0,4.6,2.31,2.31,0,0,0,1.89.78,2.69,2.69,0,0,0,1-.16,4.78,4.78,0,0,0,1-.52,1.34,1.34,0,0,1,.24-.12.53.53,0,0,1,.25,0,.44.44,0,0,1,.35.18.72.72,0,0,1,.14.44.79.79,0,0,1-.06.32.71.71,0,0,1-.21.26,4.14,4.14,0,0,1-1.24.68,4.79,4.79,0,0,1-1.49.23A4.24,4.24,0,0,1,175.81,251.29Z" transform="translate(-173.91 -243.06)"/><path class="a" d="M182.27,244.43a.74.74,0,0,1-.24-.58.72.72,0,0,1,.24-.57,1.06,1.06,0,0,1,1.29,0,.7.7,0,0,1,.25.57.74.74,0,0,1-.24.58,1,1,0,0,1-1.3,0Zm.12,7.17a.69.69,0,0,1-.21-.54v-4.63a.66.66,0,0,1,.21-.53.77.77,0,0,1,.53-.18.8.8,0,0,1,.54.18.67.67,0,0,1,.22.53v4.63a.69.69,0,0,1-.22.54.8.8,0,0,1-.54.18A.77.77,0,0,1,182.39,251.6Z" transform="translate(-173.91 -243.06)"/><path class="a" d="M190,246.08a2.6,2.6,0,0,1,.92,1.09,3.77,3.77,0,0,1,.33,1.61,3.66,3.66,0,0,1-.33,1.6,2.42,2.42,0,0,1-2.27,1.43,2.29,2.29,0,0,1-1.12-.27,1.85,1.85,0,0,1-.76-.73v2.45a.6.6,0,0,1-.2.49.8.8,0,0,1-.54.18.78.78,0,0,1-.55-.19.66.66,0,0,1-.21-.5v-6.81a.68.68,0,0,1,.2-.51.73.73,0,0,1,.54-.2.77.77,0,0,1,.54.2.68.68,0,0,1,.2.51v.3a1.85,1.85,0,0,1,.76-.76,2.34,2.34,0,0,1,1.14-.27A2.5,2.5,0,0,1,190,246.08Zm-.65,4.08a2.1,2.1,0,0,0,.4-1.38,2.19,2.19,0,0,0-.4-1.41,1.31,1.31,0,0,0-1.1-.51,1.33,1.33,0,0,0-1.11.5,2.69,2.69,0,0,0,0,2.79,1.33,1.33,0,0,0,1.11.49A1.34,1.34,0,0,0,189.3,250.16Z" transform="translate(-173.91 -243.06)"/><path class="a" d="M196.8,246.31a2.54,2.54,0,0,1,.59,1.84v2.93a.69.69,0,0,1-.19.51.74.74,0,0,1-.53.18.67.67,0,0,1-.71-.69v-.27a1.52,1.52,0,0,1-.64.73,1.88,1.88,0,0,1-1,.27,2.37,2.37,0,0,1-1.07-.24,2,2,0,0,1-.76-.66,1.69,1.69,0,0,1-.27-.94,1.49,1.49,0,0,1,.33-1,2,2,0,0,1,1.07-.54,9.91,9.91,0,0,1,2-.17h.3V248a1.23,1.23,0,0,0-.25-.86,1.07,1.07,0,0,0-.81-.27,2.48,2.48,0,0,0-.71.1,9,9,0,0,0-.85.3,1.24,1.24,0,0,1-.46.15.45.45,0,0,1-.35-.15.57.57,0,0,1-.14-.41.61.61,0,0,1,.1-.36,1,1,0,0,1,.34-.28,4.17,4.17,0,0,1,1-.36,5.07,5.07,0,0,1,1.15-.13A2.43,2.43,0,0,1,196.8,246.31Zm-1.21,4a1.47,1.47,0,0,0,.37-1V249h-.21a8.09,8.09,0,0,0-1.25.07,1.24,1.24,0,0,0-.64.25.66.66,0,0,0-.19.49.8.8,0,0,0,.27.63.93.93,0,0,0,.67.25A1.33,1.33,0,0,0,195.59,250.33Z" transform="translate(-173.91 -243.06)"/><path class="a" d="M203.9,246.3a2.73,2.73,0,0,1,.51,1.81v2.95a.67.67,0,0,1-.2.53.73.73,0,0,1-.54.19.75.75,0,0,1-.55-.19.68.68,0,0,1-.21-.53V248.2a1.52,1.52,0,0,0-.26-1,1,1,0,0,0-.81-.31,1.33,1.33,0,0,0-1,.41,1.5,1.5,0,0,0-.39,1.09v2.67a.68.68,0,0,1-.21.53.75.75,0,0,1-.55.19.77.77,0,0,1-.55-.19.7.7,0,0,1-.19-.53v-4.64a.62.62,0,0,1,.2-.5.77.77,0,0,1,.55-.2.73.73,0,0,1,.51.19.65.65,0,0,1,.2.49v.32a2.08,2.08,0,0,1,.8-.76,2.52,2.52,0,0,1,1.14-.26A2,2,0,0,1,203.9,246.3Z" transform="translate(-173.91 -243.06)"/><path class="a" d="M211.44,245.92a.65.65,0,0,1,.21.51v4.74a2.71,2.71,0,0,1-.77,2.09,3.25,3.25,0,0,1-2.27.71,4.48,4.48,0,0,1-2.18-.49.76.76,0,0,1-.45-.64.66.66,0,0,1,.13-.42.41.41,0,0,1,.33-.16.73.73,0,0,1,.26.06l.33.12a6.21,6.21,0,0,0,.77.28,3.1,3.1,0,0,0,.79.1,1.38,1.38,0,0,0,1.57-1.54v-.77a1.82,1.82,0,0,1-.77.76,2.38,2.38,0,0,1-1.15.27,2.56,2.56,0,0,1-1.36-.36,2.51,2.51,0,0,1-.93-1,3.24,3.24,0,0,1-.34-1.52,3.38,3.38,0,0,1,.33-1.53,2.39,2.39,0,0,1,.93-1,2.54,2.54,0,0,1,1.37-.37,2.38,2.38,0,0,1,1.15.27,1.82,1.82,0,0,1,.77.76v-.31a.65.65,0,0,1,.2-.5.77.77,0,0,1,.54-.2A.73.73,0,0,1,211.44,245.92Zm-1.68,4a1.89,1.89,0,0,0,.4-1.28,1.93,1.93,0,0,0-.4-1.3,1.57,1.57,0,0,0-2.24,0,1.93,1.93,0,0,0-.41,1.3,1.89,1.89,0,0,0,.41,1.28,1.57,1.57,0,0,0,2.24,0Z" transform="translate(-173.91 -243.06)"/><path class="b" d="M214.29,251.44a2.64,2.64,0,0,1-1-1.07,3.52,3.52,0,0,1-.37-1.62,3.46,3.46,0,0,1,.37-1.62,2.61,2.61,0,0,1,1-1.06,3.56,3.56,0,0,1,3.16,0,2.53,2.53,0,0,1,1,1.06,3.34,3.34,0,0,1,.37,1.62,3.4,3.4,0,0,1-.37,1.62,2.55,2.55,0,0,1-1,1.07,3.56,3.56,0,0,1-3.16,0Z" transform="translate(-173.91 -243.06)"/></svg>